<?xml version="1.0" encoding="UTF-8"?>
<svg width="24px" height="24px" viewBox="0 0 24 24" version="1.1" xmlns="http://www.w3.org/2000/svg" xmlns:xlink="http://www.w3.org/1999/xlink">
    <!-- Generator: Sketch 51.3 (57544) - http://www.bohemiancoding.com/sketch -->
    <title>Callendar</title>
    <desc>Created with Sketch.</desc>
    <defs></defs>
    <g id="Callendar" stroke="none" stroke-width="1" fill="none" fill-rule="evenodd">
        <g id="logo-/-alloshow-copy-2">
            <rect id="bounds" x="0" y="0" width="24" height="24"></rect>
            <path d="M5,5 L5,19 L19,19 L19,5 L5,5 Z M21,3 L21,21 L3,21 L3,3 L21,3 Z" id="Rectangle" fill="#000000" fill-rule="nonzero"></path>
            <path d="M7,7 L9,7 L9,9 L7,9 L7,7 Z M7,11 L9,11 L9,13 L7,13 L7,11 Z M7,15 L9,15 L9,17 L7,17 L7,15 Z M11,7 L13,7 L13,9 L11,9 L11,7 Z M11,11 L13,11 L13,13 L11,13 L11,11 Z M11,15 L13,15 L13,17 L11,17 L11,15 Z M15,7 L17,7 L17,9 L15,9 L15,7 Z M7,1 L9,1 L9,3 L7,3 L7,1 Z M15,1 L17,1 L17,3 L15,3 L15,1 Z M15,11 L17,11 L17,13 L15,13 L15,11 Z M15,15 L17,15 L17,17 L15,17 L15,15 Z" id="Combined-Shape" fill="#000000"></path>
        </g>
    </g>
</svg>