<svg xmlns="http://www.w3.org/2000/svg" width="64" height="64" viewBox="0 0 64 64"><defs><linearGradient id="x5tza" x1="18.32" x2="53.79" y1="57.34" y2="8.44" gradientUnits="userSpaceOnUse"><stop offset="0" stop-color="#fb9504"/><stop offset="1" stop-color="#fcaa26"/></linearGradient></defs><g><g clip-path="url(#clip-DFBBE325-BA35-42E9-87C2-0C3C3D4A3F24)"><path fill="url(#x5tza)" d="M32 64c17.673 0 32-14.327 32-32C64 14.327 49.673 0 32 0 14.327 0 0 14.327 0 32c0 17.673 14.327 32 32 32z"/></g><g clip-path="url(#clip-DFBBE325-BA35-42E9-87C2-0C3C3D4A3F24)"><g><path fill="#fff" d="M33.768 32.736a1.458 1.458 0 0 1-1.458-1.46 1.458 1.458 0 1 1 1.458 1.46zm-.005-4.246a2.78 2.78 0 0 0-2.773 2.786 2.78 2.78 0 0 0 2.773 2.787 2.78 2.78 0 0 0 2.773-2.787 2.78 2.78 0 0 0-2.773-2.786z"/></g><g><path fill="#fff" d="M45.838 24.897l-.001.013-1.55 13.475c.002.35-.157.68-.43.896-.132.133-.429.199-.429.265V27.83a2.846 2.846 0 0 0-2.771-2.754h-15.77l.296-2.59c.065-.334.239-.638.495-.862.29-.201.64-.295.99-.266l17.981 2.091c.726.07 1.258.718 1.189 1.448zM34.921 37.612c-.618.368-1.4.302-1.948-.165l-3.63-3.218a2.927 2.927 0 0 0-3.665-.133l-4.357 3.185v-9.454c0-.73.495-1.426 1.222-1.426h18.121a1.522 1.522 0 0 1 1.453 1.426V33.4zm7.196 3.774c0 .728-.726 1.258-1.453 1.258H22.543a1.19 1.19 0 0 1-1.222-1.258v-2.452l5.117-3.777a1.58 1.58 0 0 1 2.046.1l3.598 3.18c.547.46 1.234.718 1.948.729a2.995 2.995 0 0 0 1.584-.43l6.503-3.777v6.427zm2.707-19.265L26.8 20.065c-.7-.1-1.408.105-1.948.564a2.524 2.524 0 0 0-.957 1.725l-.33 2.72h-1.023c-1.453 0-2.542 1.293-2.542 2.753v13.567a2.516 2.516 0 0 0 2.542 2.587h18.121c1.453 0 2.773-1.128 2.773-2.587v-.53c.45-.088.878-.269 1.254-.532a2.757 2.757 0 0 0 .958-1.79l1.518-13.468a2.684 2.684 0 0 0-2.344-2.953z"/></g></g></g></svg>