<svg xmlns="http://www.w3.org/2000/svg" width="32" height="32" viewBox="0 0 32 32"><defs><linearGradient id="a7bea" x1="16" x2="16" y1="0" y2="32" gradientUnits="userSpaceOnUse"><stop offset="0" stop-color="#00d50c"/><stop offset=".08" stop-color="#00d50c"/><stop offset="1" stop-color="#00b70c"/></linearGradient></defs><g><g><g/><g><path fill="url(#a7bea)" d="M16 32c8.837 0 16-7.163 16-16S24.837 0 16 0 0 7.163 0 16s7.163 16 16 16z"/></g><g><g><path fill="#fff" d="M20.787 17.323a.639.639 0 0 1-.642-.637.64.64 0 0 1 .642-.638.64.64 0 0 1 .642.638.639.639 0 0 1-.642.637m-3.214 0a.64.64 0 0 1-.642-.637.64.64 0 0 1 .642-.638.64.64 0 0 1 .644.638.64.64 0 0 1-.644.637m4.761 3.689c1.017-.736 1.665-1.825 1.665-3.036 0-2.218-2.157-4.016-4.819-4.016-2.661 0-4.82 1.798-4.82 4.016 0 2.219 2.159 4.016 4.82 4.016.55 0 1.082-.079 1.573-.219a.451.451 0 0 1 .143-.023.51.51 0 0 1 .254.074l1.056.61a.19.19 0 0 0 .093.03.16.16 0 0 0 .16-.161c0-.04-.015-.079-.026-.117l-.217-.811a.321.321 0 0 1 .118-.363"/></g><g><path fill="#fff" d="M15.711 13.578a.771.771 0 1 1 0-1.542.771.771 0 0 1 0 1.542m-3.855 0a.77.77 0 1 1-.001-1.54.77.77 0 0 1 .001 1.54m1.927-4.048C10.59 9.53 8 11.688 8 14.349c0 1.452.779 2.76 1.999 3.643a.386.386 0 0 1 .141.436l-.261.972c-.012.046-.031.094-.031.142 0 .106.086.192.193.192a.225.225 0 0 0 .112-.036l1.265-.73a.608.608 0 0 1 .307-.089c.059 0 .118.008.17.025a6.808 6.808 0 0 0 2.206.257 3.712 3.712 0 0 1-.194-1.182c0-2.427 2.361-4.394 5.273-4.394.107 0 .21.004.315.008-.435-2.302-2.826-4.063-5.712-4.063"/></g></g></g></g></svg>