<svg xmlns="http://www.w3.org/2000/svg" width="36" height="38" viewBox="0 0 36 38"><g><g><path fill="#fff" d="M.507 10.177c.433.041.864.098 1.297.17 4.44-8.59 15.002-11.956 23.594-7.517 8.59 4.44 11.957 15.003 7.517 23.594-3.163 6.633-10.23 10.377-17.175 9.926-.095.223.015.425-.089.644-.084.177-.173.35-.262.523 7.566.687 15.148-3.303 18.608-10.519 4.421-9.213.647-20.269-8.485-24.855C16.382-2.444 5.26 1.13.507 10.177z"/></g><g><path fill="#fff" d="M10.883 17.113a1.442 1.442 0 0 1 1.559 1.912c-.1.264-.29.484-.538.62-.072.045-.118.035-.151-.05-.126-.346-.27-.688-.393-1.036-.146-.407-.28-.82-.417-1.232-.02-.063-.034-.13-.056-.214zm-1.506-4.55a4.289 4.289 0 0 1 .226-1.928 2.27 2.27 0 0 1 .238-.447.447.447 0 0 1 .498-.218.498.498 0 0 1 .365.437c.063.394.037.797-.076 1.18a4.69 4.69 0 0 1-.616 1.49 2.649 2.649 0 0 1-.214.275c-.085.09-.136.08-.197-.024a2.007 2.007 0 0 1-.218-.765zm.827 3.755a1.784 1.784 0 0 0-.673.515c-.262.3-.407.683-.408 1.08.011.549.333 1.044.83 1.277.142.07.293.122.448.156a.658.658 0 0 0 .217-.028v-.04c-.048-.03-.095-.068-.146-.096-.1-.057-.207-.106-.31-.161a.816.816 0 0 1-.434-.862 1.11 1.11 0 0 1 .76-.903c.055-.015.084-.01.104.048.294.842.586 1.691.885 2.557-.083.02-.16.04-.238.055-.576.13-1.173.13-1.75 0a1.81 1.81 0 0 1-1.233-.909 1.985 1.985 0 0 1-.138-1.363c.163-.7.51-1.343 1.003-1.865.174-.19.36-.372.54-.555.038-.032.077-.061.119-.088zm1.012 7.27l.31-.1c.742-.24 1.102-.8 1.006-1.573a5.154 5.154 0 0 0-.382-1.32c-.078-.191-.16-.38-.238-.563l.012-.02.118-.07a2.36 2.36 0 0 0 1.078-1.417c.17-.647.106-1.263-.344-1.77-.549-.618-1.265-.787-2.062-.675-.055.008-.108.026-.163.037-.142-.375-.271-.74-.413-1.1a.285.285 0 0 1 .018-.275c.285-.472.53-.967.731-1.481.412-1.098.56-2.205.215-3.344-.163-.517-.419-1-.756-1.425h-.031a2.516 2.516 0 0 0-1.35 1.52 4.084 4.084 0 0 0-.173 1.652c.045.67.215 1.327.502 1.935a.23.23 0 0 1-.018.266 3.1 3.1 0 0 1-.275.334c-.35.352-.665.734-.944 1.143a4.086 4.086 0 0 0-.7 2.392c.011.708.333 1.375.879 1.826a3.401 3.401 0 0 0 2.482.75 5.83 5.83 0 0 0 .752-.13c.08-.016.122.004.15.08.155.423.326.842.465 1.271.061.203.096.414.103.626a.958.958 0 0 1-.335.787c-.35.316-.822.46-1.288.393a.372.372 0 0 1-.3-.165c.144-.071.288-.13.42-.21a.62.62 0 0 0 .334-.565.854.854 0 0 0-.549-.82.838.838 0 0 0-.942.174.984.984 0 0 0-.077 1.46c.222.235.524.376.846.394.154.015.31.03.463.03z"/></g><g><path fill="#fff" d="M25.855 25.828c-.365.312-.812.51-1.287.573a2.34 2.34 0 0 1-1.306-.146.954.954 0 0 1-.59-.938 1.513 1.513 0 0 1 1.213-1.48 2.939 2.939 0 0 1 1.627.125c.034.014.07.026.105.037a.331.331 0 0 0 .057 0c.434-2.638.871-5.274 1.308-7.924.161.063.266.22.263.393.009.14.004.28-.013.417-.29 2.286-.573 4.574-.876 6.86-.084.628-.228 1.25-.344 1.873z"/></g><g><path fill="#fff" d="M22.207 14.244l-.656-.93c-.646-.917-1.29-1.838-1.937-2.755-.077-.094-.118-.141 0-.246.118-.104.222-.222.357-.362l2.754 3.781zm-2.685 2.35a7.78 7.78 0 0 0-.197-.877 1.361 1.361 0 0 0-.805-.84c-.586-.236-1.208.087-1.455.748a1.946 1.946 0 0 0 .196 1.72c.118.21.268.4.445.564.547.488 1.084.326 1.477-.067.655-.65 1.299-1.31 1.948-1.967l2-2.025.528-.535-3.264-4.327-3.89 3.853c-.017-.098-.017-.157-.017-.216-.037-.283-.055-.57-.12-.848a1.355 1.355 0 0 0-.59-.85c-.618-.401-1.355-.008-1.601.514a1.999 1.999 0 0 0 .096 1.916 1.208 1.208 0 0 0 1.865.356c.246-.197.478-.41.694-.64.616-.604 1.226-1.215 1.838-1.823.18-.18.358-.356.555-.541.035.047.06.082.084.118l2.502 3.54c.117.166.113.162-.037.312l-1.615 1.627-.574.574c-.028-.118-.028-.203-.063-.285z"/></g><g><path fill="#fff" d="M15.74 28.337c.698-2.813 1.288-5.634 2.145-8.4.181.071.284.136.327.301.114.492.26.976.437 1.448.189.409.407.804.653 1.18.41.648.683 1.371.804 2.127.055.299.012.607-.121.88-.024.045-.056.084-.107.167-.047-.15-.092-.264-.118-.382-.07-.326-.134-.653-.196-.983a2.884 2.884 0 0 0-.612-1.261 7.869 7.869 0 0 0-1.053-1.12l-.1-.075a.24.24 0 0 0-.055-.011c-.038.147-.075.293-.11.44-.502 2.06-.996 4.131-1.507 6.181a5.241 5.241 0 0 1-.33.893 1.452 1.452 0 0 1-1.059.844 3.092 3.092 0 0 1-1.737-.08c-.752-.27-1.062-.964-.726-1.659.227-.46.65-.794 1.15-.909a2.85 2.85 0 0 1 1.895.209c.136.07.27.14.42.21z"/></g></g></svg>