<?xml version="1.0" encoding="UTF-8"?>
<svg width="49px" height="27px" viewBox="0 0 49 27" version="1.1" xmlns="http://www.w3.org/2000/svg" xmlns:xlink="http://www.w3.org/1999/xlink">
    <!-- Generator: Sketch 51.3 (57544) - http://www.bohemiancoding.com/sketch -->
    <title>i-pay</title>
    <desc>Created with Sketch.</desc>
    <defs>
        <linearGradient x1="0%" y1="49.9938778%" x2="100%" y2="49.9938778%" id="linearGradient-1">
            <stop stop-color="#821C24" offset="0%"></stop>
            <stop stop-color="#AF1C24" offset="37%"></stop>
            <stop stop-color="#DB1C24" offset="79%"></stop>
            <stop stop-color="#EC1C24" offset="100%"></stop>
        </linearGradient>
        <linearGradient x1="0%" y1="0%" x2="100%" y2="0%" id="linearGradient-2">
            <stop stop-color="#821C24" offset="0%"></stop>
            <stop stop-color="#AF1C24" offset="37%"></stop>
            <stop stop-color="#DB1C24" offset="79%"></stop>
            <stop stop-color="#EC1C24" offset="100%"></stop>
        </linearGradient>
        <linearGradient x1="0%" y1="49.9938778%" x2="100.007162%" y2="49.9938778%" id="linearGradient-3">
            <stop stop-color="#821C24" offset="0%"></stop>
            <stop stop-color="#AF1C24" offset="37%"></stop>
            <stop stop-color="#DB1C24" offset="79%"></stop>
            <stop stop-color="#EC1C24" offset="100%"></stop>
        </linearGradient>
    </defs>
    <g id="Symbols" stroke="none" stroke-width="1" fill="none" fill-rule="evenodd">
        <g id="i-pay" transform="translate(-7.000000, -18.000000)" fill-rule="nonzero">
            <g transform="translate(8.000000, 19.000000)">
                <rect id="Rectangle-path" stroke="#FFFFFF" stroke-width="1.32422764" fill="url(#linearGradient-1)" x="10.9762602" y="0.436747967" width="36.3265041" height="21.2474797" rx="2.59902439"></rect>
                <path d="M32.3928455,6.39707317 L47.3027642,6.39707317" id="Shape" stroke="#FFFFFF" stroke-width="1.32422764" fill="url(#linearGradient-2)" stroke-linecap="round"></path>
                <path d="M32.3928455,10.481626 L47.3027642,10.481626" id="Shape" stroke="#FFFFFF" stroke-width="1.32422764" fill="url(#linearGradient-2)" stroke-linecap="round"></path>
                <rect id="Rectangle-path" stroke="#FFFFFF" stroke-width="1.32422764" fill="url(#linearGradient-3)" x="0.413658537" y="3.9697561" width="36.3265041" height="21.2474797" rx="2.97886179"></rect>
                <path d="M6.46243902,13.6295935 L6.46243902,14.4803252 L9.95121951,14.4803252 C10.2321951,14.4803252 10.4715447,14.5635772 10.455935,14.8809756 C10.4403252,15.198374 10.1385366,15.2243902 9.95902439,15.2295935 C9.05365854,15.2660163 8.13788618,15.2452033 7.23512195,15.2452033 L6.45463415,15.2452033 C6.45463415,15.8357724 6.45463415,16.3977236 6.45463415,16.9622764 C6.45463415,17.1105691 6.51186992,17.6360976 6.02796748,17.6360976 C5.71837398,17.6360976 5.71577236,17.3603252 5.70536585,17.2042276 C5.67154472,16.5720325 5.70536585,15.9346341 5.70536585,15.2452033 C5.18511049,15.266336 4.66411896,15.2611261 4.14439024,15.2295935 C4.10964566,15.2236983 4.07563113,15.2141045 4.04292683,15.2009756 C3.910334,15.1413284 3.825056,15.0094564 3.825056,14.864065 C3.825056,14.7186737 3.910334,14.5868017 4.04292683,14.5271545 C4.07285046,14.5114541 4.1055462,14.5017338 4.13918699,14.4985366 C4.63349593,14.4699187 5.1798374,14.4803252 5.67934959,14.4803252 L5.67934959,13.6295935 C5.21365854,13.6295935 4.75056911,13.6295935 4.28487805,13.6295935 C3.99349593,13.6295935 3.73333333,13.5879675 3.73333333,13.2315447 C3.73333333,12.875122 3.99349593,12.8907317 4.27447154,12.8803252 C4.72195122,12.8595122 5.17723577,12.8621138 5.71317073,12.8621138 L5.71317073,7.91902439 C5.71317073,7.29203252 5.79121951,7.20357724 6.39739837,7.21138211 C7.40682927,7.21138211 8.42666667,7.15154472 9.41788618,7.28682927 C11.0625305,7.51063743 12.2477058,8.97756279 12.1209756,10.6325203 C11.9967896,12.3215724 10.5885675,13.6275847 8.89495935,13.6243902 C8.07544715,13.64 7.28715447,13.6295935 6.46243902,13.6295935 Z M6.46243902,12.8647154 C7.31577236,12.8647154 8.10666667,12.8647154 8.89495935,12.8647154 C10.1242281,12.8574308 11.157904,11.9405858 11.3118699,10.7209756 C11.4471545,9.4201626 10.6120325,8.19739837 9.33463415,8.03609756 C8.39804878,7.91902439 7.43284553,8.01268293 6.47284553,8.01268293 L6.46243902,12.8647154 Z" id="Shape" fill="#FFFFFF"></path>
            </g>
        </g>
    </g>
</svg>