<svg xmlns="http://www.w3.org/2000/svg" width="32" height="32" viewBox="0 0 32 32"><defs><linearGradient id="ka22a" x1="22.16" x2="11.65" y1="1.64" y2="26.14" gradientUnits="userSpaceOnUse"><stop offset="0" stop-color="#36aee2"/><stop offset="1" stop-color="#1d95c8"/></linearGradient></defs><g><g><g/><g><path fill="url(#ka22a)" d="M16 32c8.837 0 16-7.163 16-16S24.837 0 16 0 0 7.163 0 16s7.163 16 16 16z"/></g><g><path fill="#fff" d="M22.92 9.379c.647-.294 1.272.155 1.024 1.146l-2.413 11.373c-.169.809-.657 1.002-1.334.629l-3.676-2.717-1.768 1.719c-.205.2-.368.368-.736.368-.476 0-.395-.18-.559-.634l-1.353-4.146-3.535-1.104c-.785-.24-.79-.78.177-1.168L22.92 9.379m-1.83 2.612c.3-.266-.065-.396-.463-.154l-7.967 5.026 1.343 4.116.265-2.833 6.822-6.155"/></g></g></g></svg>