<?xml version="1.0" encoding="UTF-8"?>
<svg width="48px" height="51px" viewBox="0 0 48 51" version="1.1" xmlns="http://www.w3.org/2000/svg" xmlns:xlink="http://www.w3.org/1999/xlink">
    <!-- Generator: Sketch 51.3 (57544) - http://www.bohemiancoding.com/sketch -->
    <title>i-ticket</title>
    <desc>Created with Sketch.</desc>
    <defs>
        <linearGradient x1="-8.22160861%" y1="29.0844862%" x2="96.875964%" y2="97.4757905%" id="linearGradient-1">
            <stop stop-color="#821C24" offset="0%"></stop>
            <stop stop-color="#AF1C24" offset="37%"></stop>
            <stop stop-color="#DB1C24" offset="79%"></stop>
            <stop stop-color="#EC1C24" offset="100%"></stop>
        </linearGradient>
        <linearGradient x1="501.039249%" y1="5127.00568%" x2="573.521469%" y2="5127.00568%" id="linearGradient-2">
            <stop stop-color="#821C24" offset="0%"></stop>
            <stop stop-color="#AF1C24" offset="37%"></stop>
            <stop stop-color="#DB1C24" offset="79%"></stop>
            <stop stop-color="#EC1C24" offset="100%"></stop>
        </linearGradient>
        <linearGradient x1="480.099925%" y1="5123.17766%" x2="552.570662%" y2="5123.17766%" id="linearGradient-3">
            <stop stop-color="#821C24" offset="0%"></stop>
            <stop stop-color="#AF1C24" offset="37%"></stop>
            <stop stop-color="#DB1C24" offset="79%"></stop>
            <stop stop-color="#EC1C24" offset="100%"></stop>
        </linearGradient>
        <linearGradient x1="5.95277912%" y1="-624.772368%" x2="93.2789058%" y2="594.821205%" id="linearGradient-4">
            <stop stop-color="#821C24" offset="0%"></stop>
            <stop stop-color="#AF1C24" offset="37%"></stop>
            <stop stop-color="#DB1C24" offset="79%"></stop>
            <stop stop-color="#EC1C24" offset="100%"></stop>
        </linearGradient>
        <linearGradient x1="5.93818529%" y1="-624.632755%" x2="93.2643119%" y2="594.960817%" id="linearGradient-5">
            <stop stop-color="#821C24" offset="0%"></stop>
            <stop stop-color="#AF1C24" offset="37%"></stop>
            <stop stop-color="#DB1C24" offset="79%"></stop>
            <stop stop-color="#EC1C24" offset="100%"></stop>
        </linearGradient>
        <linearGradient x1="5.93319937%" y1="-624.763785%" x2="93.259326%" y2="594.829787%" id="linearGradient-6">
            <stop stop-color="#821C24" offset="0%"></stop>
            <stop stop-color="#AF1C24" offset="37%"></stop>
            <stop stop-color="#DB1C24" offset="79%"></stop>
            <stop stop-color="#EC1C24" offset="100%"></stop>
        </linearGradient>
    </defs>
    <g id="Symbols" stroke="none" stroke-width="1" fill="none" fill-rule="evenodd">
        <g id="i-ticket" transform="translate(-10.000000, -7.000000)" fill-rule="nonzero">
            <g transform="translate(10.000000, 7.000000)" id="Shape">
                <path d="M0.0495867769,13.6280992 C0.626115702,13.6809917 1.2,13.757686 1.77652893,13.8528926 C7.88996954,2.80111033 21.687871,-1.37928505 32.9070877,4.42116526 C44.1263044,10.2216156 48.6927958,23.8965908 43.2099174,35.2743802 C38.9970248,44.1100826 29.5821488,49.0952066 20.3365289,48.4975207 C20.2095868,48.7910744 20.357686,49.0608264 20.2175207,49.3543802 C20.1038017,49.5897521 19.987438,49.8198347 19.8684298,50.0499174 C29.9471074,50.9649587 40.0363636,45.6519008 44.648595,36.0333884 C50.6230723,23.7506184 45.614102,8.94694542 33.4089671,2.81542842 C21.2038322,-3.31608858 6.33713489,1.50260715 0.0495867769,13.6280992 Z" fill="#FFFFFF"></path>
                <path d="M26.3900826,35.1315702 L4.98181818,35.1897521 C5.09057492,34.9513873 5.18506663,34.7067686 5.26479339,34.4571901 C5.44198347,33.774876 5.17752066,33.1480992 4.56396694,32.5795041 C4.07471074,32.1219835 4.07206612,31.8442975 4.56396694,31.3973554 C5.58743802,30.4743802 5.58214876,29.2816529 4.5507438,28.3454545 C4.06942149,27.9090909 4.07206612,27.5943802 4.53487603,27.1580165 C5.32826446,26.3990083 5.50545455,25.5897521 5.02413223,24.7328926 C4.99239669,24.6747107 4.95801653,24.6165289 4.91305785,24.5424793 L26.3345455,24.4842975 C26.2049484,24.7559674 26.0987779,25.0382041 26.0171901,25.3279339 C25.8955372,25.9679339 26.1838017,26.5523967 26.757686,27.0813223 C27.2654545,27.5520661 27.2654545,27.8350413 26.757686,28.3004959 C25.7500826,29.2128926 25.7580165,30.3871074 26.7735537,31.3153719 C27.2760331,31.7702479 27.2654545,32.0664463 26.7735537,32.5371901 C25.9642975,33.3120661 25.7791736,34.1239669 26.3398347,34.9966942 C26.3609917,35.0284298 26.3795041,35.0628099 26.3980165,35.0945455 C26.4165289,35.126281 26.3953719,35.1077686 26.3900826,35.1315702 Z" stroke="#FFFFFF" stroke-width="0.729917355" fill="url(#linearGradient-1)"></path>
                <path d="M32.5150413,30.7097521 L11.1067769,30.7652893 C11.2158278,30.5243393 11.3103227,30.277063 11.3897521,30.0247934 C11.5669421,29.3424793 11.3024793,28.7183471 10.6915702,28.1471074 C10.1996694,27.6895868 10.1970248,27.4119008 10.6915702,26.9649587 C11.7150413,26.0419835 11.7097521,24.8492562 10.6915702,23.9130579 C10.2102479,23.4766942 10.2128926,23.1619835 10.6757025,22.7256198 C11.4690909,21.9692562 11.6489256,21.1573554 11.1676033,20.3004959 L11.0538843,20.1100826 L32.4753719,20.0519008 C32.3450292,20.3232527 32.2388339,20.6055551 32.1580165,20.8955372 C32.033719,21.5355372 32.3219835,22.12 32.8958678,22.6489256 C33.4036364,23.1196694 33.4036364,23.4026446 32.8958678,23.8707438 C31.8882645,24.7831405 31.8935537,25.9547107 32.9117355,26.8829752 C33.4115702,27.3404959 33.4009917,27.6340496 32.9117355,28.1047934 C32.1024793,28.8796694 31.9173554,29.6915702 32.4806612,30.5642975 C32.4991736,30.5986777 32.5203306,30.6304132 32.5361983,30.6621488 C32.5520661,30.6938843 32.5203306,30.6833058 32.5150413,30.7097521 Z" stroke="#FFFFFF" stroke-width="0.729917355" fill="url(#linearGradient-2)"></path>
                <path d="M37.978843,25.3834711 L16.5705785,25.4390083 C16.6788815,25.201355 16.773364,24.9576432 16.8535537,24.7090909 C17.0307438,24.0241322 16.766281,23.3867769 16.1527273,22.8287603 C15.6634711,22.3712397 15.6581818,22.0935537 16.1527273,21.6466116 C17.178843,20.7236364 17.1735537,19.5309091 16.1527273,18.5947107 C15.6687603,18.1583471 15.6740496,17.8436364 16.1368595,17.4072727 C16.9302479,16.6509091 17.107438,15.8416529 16.6261157,14.9821488 C16.5943802,14.9239669 16.56,14.8684298 16.5150413,14.7917355 L37.9365289,14.7361983 C37.8069319,15.0078683 37.7007614,15.2901049 37.6191736,15.5798347 C37.4975207,16.2171901 37.7857851,16.8016529 38.3596694,17.3332231 C38.867438,17.8013223 38.867438,18.0869421 38.3596694,18.5523967 C37.3520661,19.4647934 37.36,20.6390083 38.3755372,21.5646281 C38.8780165,22.0221488 38.867438,22.3157025 38.3755372,22.7864463 C37.566281,23.5613223 37.3838017,24.3732231 37.9444628,25.248595 C37.9656198,25.2803306 37.9841322,25.3120661 38.0026446,25.3438017 C38.021157,25.3755372 37.9841322,25.3596694 37.978843,25.3834711 Z" stroke="#FFFFFF" stroke-width="0.729917355" fill="url(#linearGradient-3)"></path>
                <path d="M28.1646281,16.8466116 L37.8571901,16.8466116" stroke="#FFFFFF" stroke-width="0.650578512" fill="url(#linearGradient-4)" stroke-linecap="round"></path>
                <path d="M27.9054545,19.6393388 L37.5980165,19.6393388" stroke="#FFFFFF" stroke-width="0.650578512" fill="url(#linearGradient-5)" stroke-linecap="round"></path>
                <path d="M28.4264463,22.1728926 L38.1190083,22.1728926" stroke="#FFFFFF" stroke-width="0.650578512" fill="url(#linearGradient-6)" stroke-linecap="round"></path>
            </g>
        </g>
    </g>
</svg>