<svg xmlns="http://www.w3.org/2000/svg" width="32" height="32" viewBox="0 0 32 32"><g><g><g/><g><path fill="#665cac" d="M16 32c8.837 0 16-7.163 16-16S24.837 0 16 0 0 7.163 0 16s7.163 16 16 16z"/></g><g><g><path fill="#fff" d="M21.87 9.56c1.322 1.145 2.052 3.686 1.56 7.698-.476 3.893-3.41 4.27-3.93 4.438-.222.072-2.198.566-4.765.35-.283.329-.66.76-.931 1.054-.498.536-.802 1.03-1.321.869-.43-.132-.406-.785-.406-.785l.003-1.61h-.003c-3.755-1.057-3.7-4.95-3.657-7.03.04-2.078.445-3.754 1.59-4.9 2.058-1.887 6.279-1.632 6.279-1.632 3.578.017 5.184 1.184 5.582 1.549m.435 7.409c.418-3.352-.151-5.64-1.268-6.598-.336-.305-1.786-1.214-4.814-1.23 0 0-3.585-.235-5.326 1.34-.967.956-1.294 2.378-1.33 4.114-.036 1.735-.22 5.052 2.953 5.933-.002 0-.002 0 0 0 0 0-.011 2.46-.014 2.677 0 .15.024.254.11.276.063.017.157-.017.236-.096.507-.512 2.132-2.471 2.132-2.471 2.18.144 3.914-.288 4.1-.348.438-.14 2.818-.346 3.22-3.597"/></g><g><path fill="#fff" d="M17.762 14.655a.203.203 0 0 1-.202-.192c-.033-.688-.357-1.025-1.019-1.06a.201.201 0 0 1-.19-.212.2.2 0 0 1 .212-.19c.873.045 1.358.544 1.401 1.442a.2.2 0 0 1-.192.211l-.01.001"/></g><g><path fill="#fff" d="M18.8 15h-.005a.202.202 0 0 1-.198-.207c.016-.691-.182-1.252-.604-1.712-.423-.461-1.001-.712-1.765-.766a.203.203 0 0 1 .029-.404c.86.062 1.544.363 2.034.897.49.533.729 1.205.71 1.995A.202.202 0 0 1 18.8 15"/></g><g><path fill="#fff" d="M19.869 15.417a.203.203 0 0 1-.203-.201c-.008-1.219-.375-2.192-1.089-2.889-.715-.697-1.619-1.055-2.686-1.061a.204.204 0 0 1-.201-.204.204.204 0 0 1 .203-.202l.001.001c1.175.007 2.173.403 2.966 1.176.794.776 1.201 1.845 1.211 3.176a.202.202 0 0 1-.201.204z"/></g><g><path fill="#fff" d="M16.599 17.162s.286.024.437-.165l.298-.375c.144-.188.492-.305.833-.115.19.108.53.317.742.473.226.165.689.552.689.552.22.185.272.46.123.747 0 .002-.003.005-.003.005-.154.271-.36.528-.621.766l-.005.005c-.214.177-.426.281-.632.304a.857.857 0 0 1-.36-.036l-.007-.01c-.32-.088-.85-.314-1.736-.8a10.265 10.265 0 0 1-1.458-.964 7.756 7.756 0 0 1-.655-.58l-.022-.023-.021-.02-.022-.023c-.007-.008-.015-.014-.022-.02a8.087 8.087 0 0 1-.581-.657 10.41 10.41 0 0 1-.963-1.458c-.487-.885-.713-1.417-.802-1.736l-.01-.007a.798.798 0 0 1-.04-.268.368.368 0 0 1 .005-.092c.024-.206.127-.418.305-.63.002-.004.002-.004.005-.006.237-.262.492-.469.766-.622.002 0 .004-.003.004-.003.289-.148.562-.097.747.123.003.002.387.463.552.69.156.213.368.551.474.741.189.341.07.69-.116.833l-.375.298c-.19.154-.165.437-.165.437s.557 2.106 2.636 2.636"/></g></g></g></g></svg>