<svg xmlns="http://www.w3.org/2000/svg" width="32" height="32" viewBox="0 0 32 32"><g><g><g/><g><path fill="#4d75a4" d="M16 32c8.837 0 16-7.163 16-16S24.837 0 16 0 0 7.163 0 16s7.163 16 16 16z"/></g><g><g/><g><path fill="#fff" d="M25.097 11.745c.129-.43 0-.745-.613-.745h-2.026c-.515 0-.753.272-.882.573 0 0-1.03 2.512-2.49 4.143-.472.472-.687.623-.945.623-.128 0-.315-.151-.315-.58v-4.014c0-.516-.149-.745-.579-.745h-3.184c-.322 0-.515.239-.515.466 0 .488.73.6.805 1.974v2.985c0 .654-.118.772-.376.772-.687 0-2.358-2.522-3.349-5.409-.194-.562-.389-.788-.907-.788H7.695c-.579 0-.695.272-.695.573 0 .536.687 3.198 3.199 6.719C11.873 20.696 14.232 22 16.379 22c1.288 0 1.447-.289 1.447-.788v-1.818c0-.579.123-.694.53-.694.301 0 .816.15 2.018 1.31 1.374 1.374 1.6 1.99 2.373 1.99h2.027c.579 0 .868-.289.701-.86-.183-.57-.838-1.396-1.709-2.375-.472-.559-1.181-1.16-1.396-1.46-.3-.386-.214-.558 0-.902 0 0 2.47-3.477 2.727-4.658"/></g></g></g></g></svg>