<svg xmlns="http://www.w3.org/2000/svg" width="32" height="32" viewBox="0 0 32 32"><defs><linearGradient id="hbh3a" x1="16" x2="16" y1="32" y2="0" gradientUnits="userSpaceOnUse"><stop offset="0" stop-color="#24cf42"/><stop offset="1" stop-color="#60fd7c"/></linearGradient></defs><g><g><g/><g><path fill="url(#hbh3a)" d="M16 32c8.837 0 16-7.163 16-16S24.837 0 16 0 0 7.163 0 16s7.163 16 16 16z"/></g><g><path fill="#fff" d="M21.677 10.325a7.878 7.878 0 0 1 2.321 5.61c-.002 4.371-3.56 7.927-7.931 7.927h-.003a7.924 7.924 0 0 1-3.79-.964L8.07 24l1.125-4.108a7.92 7.92 0 0 1-1.059-3.964C8.138 11.557 11.696 8 16.067 8a7.88 7.88 0 0 1 5.61 2.325m-5.61 12.189c3.633 0 6.591-2.955 6.592-6.585a6.539 6.539 0 0 0-1.929-4.658 6.552 6.552 0 0 0-4.66-1.932c-3.637 0-6.594 2.954-6.595 6.585a6.57 6.57 0 0 0 1.008 3.504l.157.25-.666 2.428 2.495-.653.24.143c1.013.6 2.173.918 3.355.918h.003m3.616-4.926c.198.1.33.149.379.231.05.083.05.48-.115.943-.165.463-.957.885-1.338.941a2.7 2.7 0 0 1-1.248-.078 11.422 11.422 0 0 1-1.13-.417c-1.987-.858-3.286-2.859-3.384-2.991-.1-.133-.81-1.074-.81-2.05 0-.975.512-1.454.694-1.652a.728.728 0 0 1 .528-.248c.132 0 .264.001.38.007.122.005.285-.046.446.339.165.398.561 1.372.611 1.472.05.099.082.215.016.347-.066.132-.099.215-.198.33-.099.116-.208.259-.297.347-.099.099-.202.207-.087.405.116.198.513.846 1.102 1.372.757.675 1.396.884 1.594.983.198.099.314.083.429-.05.116-.131.496-.578.628-.776.132-.198.264-.165.446-.1.182.067 1.156.546 1.354.645"/></g></g></g></svg>