<?xml version="1.0" encoding="UTF-8"?>
<svg width="34px" height="44px" viewBox="0 0 34 44" version="1.1" xmlns="http://www.w3.org/2000/svg" xmlns:xlink="http://www.w3.org/1999/xlink">
    <!-- Generator: Sketch 51.3 (57544) - http://www.bohemiancoding.com/sketch -->
    <title>i-wifi</title>
    <desc>Created with Sketch.</desc>
    <defs></defs>
    <g id="Symbols" stroke="none" stroke-width="1" fill="none" fill-rule="evenodd">
        <g id="i-wifi" transform="translate(-15.000000, -10.000000)" fill="#FFFFFF" fill-rule="nonzero">
            <g id="100%">
                <g id="i-wifi" transform="translate(15.000000, 10.000000)">
                    <polygon id="Shape" points="29.5901639 37.5042623 29.5901639 38.4118033 4.10295082 38.4118033 4.10295082 37.5042623"></polygon>
                    <polygon id="Shape" points="29.5901639 41.147541 29.5901639 43.0281967 4.10295082 43.0281967 4.10295082 41.147541"></polygon>
                    <path d="M16.3783607,0.806557377 C22.9881967,0.906229508 28.2786885,3.06754098 32.6904918,7.36393443 C32.9090633,7.54494841 33.0421244,7.80900564 33.0575631,8.09238031 C33.0730018,8.37575498 32.9694156,8.65270512 32.7718033,8.85639344 C32.357377,9.28131148 31.7540984,9.26819672 31.2767213,8.79868852 C29.1259016,6.68459016 26.6681967,5.02163934 23.8039344,4.07737705 C16.3337705,1.59868852 9.52196721,2.83934426 3.43672131,7.87016393 C3.0852459,8.16131148 2.76,8.48655738 2.42688525,8.79868852 C1.92327869,9.26819672 1.31737705,9.28655738 0.90557377,8.84590164 C0.493770492,8.4052459 0.554098361,7.79672131 1.02098361,7.35081967 C4.35695345,4.01678444 8.66709712,1.83047968 13.3278689,1.10819672 C14.4845902,0.924590164 15.664918,0.874754098 16.3783607,0.806557377 Z" id="Shape"></path>
                    <path d="M17.2622951,8.17180328 C21.6872131,8.2347541 25.8865574,9.89508197 29.4196721,13.2183607 C29.5272131,13.3206557 29.637377,13.4229508 29.7370492,13.5304918 C30.1234999,13.9231815 30.1227176,14.5535059 29.7352932,14.945235 C29.3478688,15.3369641 28.7175915,15.3447111 28.3206557,14.962623 C27.8406557,14.5377049 27.3868852,14.0813115 26.8832787,13.6878689 C20.4717701,8.62370336 11.2920858,9.12868721 5.4747541,14.8655738 C4.83737705,15.4845902 3.92721311,15.2878689 3.7095082,14.4852459 C3.60662246,14.0988854 3.74012186,13.688118 4.0504918,13.4360656 C5.97747534,11.5264329 8.30774871,10.0727008 10.8701639,9.18163934 C12.9278509,8.48359562 15.0896338,8.14207472 17.2622951,8.17180328 Z" id="Shape"></path>
                    <path d="M16.8216393,15.5186885 C20.4835565,15.5053457 24.0008457,16.9469814 26.6,19.5265574 C27.2321311,20.1377049 27.0301639,21.0740984 26.2301639,21.2918033 C25.8316239,21.3891119 25.412578,21.2494299 25.1521311,20.932459 C23.8695564,19.6301754 22.2831019,18.6674859 20.5357377,18.1311475 C16.0767213,16.8196721 12.095082,17.7009836 8.63803279,20.8380328 C8.58557377,20.882623 8.53836066,20.932459 8.48852459,20.9796721 C8.01639344,21.4281967 7.4052459,21.4413115 6.99606557,21.0137705 C6.80058938,20.814614 6.69755544,20.5426313 6.71201315,20.2639465 C6.72647086,19.9852616 6.85709596,19.7254009 7.07213115,19.547541 C9.26326654,17.3475175 12.1386508,15.9597838 15.2242623,15.6131148 C15.3947541,15.5921311 15.5652459,15.5659016 15.7488525,15.5554098 C16.1003279,15.547541 16.4754098,15.5344262 16.8216393,15.5186885 Z" id="Shape"></path>
                    <path d="M16.4177049,22.8655738 C19.4472131,22.9022951 21.6977049,23.812459 23.5809836,25.6301639 C23.895757,25.8976208 24.0153272,26.3301528 23.882623,26.7213115 C23.7756464,27.0971544 23.4482164,27.3682748 23.0590164,27.4032787 C22.7000963,27.4395942 22.3462084,27.2974508 22.1121311,27.0229508 C20.9390629,25.8615284 19.4069704,25.1320046 17.7659016,24.9534426 C15.5052679,24.6540656 13.2324772,25.410373 11.6019672,27.0045902 C11.369653,27.2790772 11.0219895,27.4286308 10.6629508,27.4085246 C10.2723196,27.3820695 9.93797923,27.1185551 9.82098361,26.744918 C9.67739928,26.3576554 9.78684387,25.9219617 10.0963934,25.6485246 C11.2786665,24.4544857 12.7654969,23.607201 14.3954098,23.1986885 C15.1901639,23.0072131 16.0111475,22.9285246 16.4177049,22.8655738 Z" id="Shape"></path>
                </g>
            </g>
        </g>
    </g>
</svg>