<svg xmlns="http://www.w3.org/2000/svg" width="16" height="16" viewBox="0 0 16 16"><g><g><g><path fill="#c80a09" d="M8 1.441c2.136 0 2.389.008 3.232.047.781.035 1.205.166 1.486.276.374.145.64.318.92.598.28.28.454.546.598.92.11.281.241.705.276 1.486.039.843.047 1.096.047 3.232s-.008 2.389-.047 3.232c-.035.781-.166 1.205-.276 1.486a2.46 2.46 0 0 1-.598.92 2.46 2.46 0 0 1-.92.598c-.281.11-.705.241-1.486.276-.842.039-1.095.047-3.232.047-2.137 0-2.39-.008-3.232-.047-.781-.035-1.205-.166-1.486-.276a2.46 2.46 0 0 1-.92-.598 2.46 2.46 0 0 1-.598-.92c-.11-.281-.241-.705-.276-1.486-.039-.843-.047-1.096-.047-3.232s.008-2.389.047-3.232c.035-.781.166-1.205.276-1.486a2.46 2.46 0 0 1 .598-.92c.28-.28.546-.453.92-.598.281-.11.705-.241 1.486-.276.843-.039 1.096-.047 3.232-.047M8 0C5.827 0 5.555.009 4.701.048 3.85.087 3.269.223 2.76.42a3.9 3.9 0 0 0-1.417.923A3.9 3.9 0 0 0 .42 2.76C.223 3.269.087 3.851.048 4.701.009 5.555 0 5.827 0 8s.009 2.445.048 3.299c.039.851.175 1.432.372 1.941a3.9 3.9 0 0 0 .923 1.417c.444.446.89.719 1.417.923.509.197 1.09.333 1.941.372C5.555 15.991 5.827 16 8 16s2.445-.009 3.299-.048c.851-.039 1.432-.175 1.941-.372a3.886 3.886 0 0 0 1.417-.923 3.9 3.9 0 0 0 .923-1.417c.197-.509.333-1.09.372-1.941.039-.854.048-1.126.048-3.299s-.009-2.445-.048-3.299c-.039-.85-.175-1.432-.372-1.941a3.9 3.9 0 0 0-.923-1.417A3.9 3.9 0 0 0 13.24.42c-.509-.197-1.09-.333-1.941-.372C10.445.009 10.173 0 8 0"/></g><g><path fill="#c80a09" d="M7.998 3.89a4.108 4.108 0 1 1 0 8.215 4.108 4.108 0 0 1 0-8.215m.005 6.785a2.672 2.672 0 1 0 0-5.344 2.672 2.672 0 0 0 0 5.344"/></g><g><path fill="#c80a09" d="M13.23 3.73a.96.96 0 1 1-1.92 0 .96.96 0 0 1 1.92 0"/></g></g></g></svg>