<svg xmlns="http://www.w3.org/2000/svg" width="53" height="15" viewBox="0 0 53 15"><defs><linearGradient id="yu80a" x1="36.1" x2="51.15" y1="2.97" y2="2.97" gradientUnits="userSpaceOnUse"><stop offset=".3" stop-color="#00b4e6"/><stop offset="1" stop-color="#088ccb"/></linearGradient></defs><g><g><g><g><g><path fill="#4db45e" d="M13.783 0v.006c-.006 0-1.998-.006-2.53 1.897-.486 1.744-1.858 6.561-1.896 6.694h-.38s-1.403-4.924-1.896-6.7C6.55-.007 4.552 0 4.552 0H0v14.476h4.552V5.879h.38l2.655 8.597h3.161l2.656-8.59h.379v8.59h4.552V0z"/></g></g><g><g><path fill="#4db45e" d="M30.411 0s-1.334.12-1.96 1.517l-3.224 7.08h-.38V0h-4.552v14.476h4.3s1.397-.126 2.023-1.517l3.16-7.08h.38v8.597h4.552V0z"/></g></g><g><g><path fill="#4db45e" d="M36.733 6.574v7.902h4.552V9.862h4.932c2.15 0 3.97-1.372 4.647-3.288z"/></g></g><g><g><path fill="url(#yu80a)" d="M46.217 0H36.095a7.272 7.272 0 0 0 5.248 5.69 7.275 7.275 0 0 0 1.903.252h7.802c.07-.329.1-.664.1-1.011A4.93 4.93 0 0 0 46.219 0z"/></g></g></g></g></g></svg>