<svg xmlns="http://www.w3.org/2000/svg" width="10" height="18" viewBox="0 0 10 18"><g><g><path fill="#c80a09" d="M5.005 8.91a4.46 4.46 0 0 1-4.46-4.453c0-2.458 2-4.457 4.46-4.457s4.46 2 4.46 4.457c0 2.456-2 4.453-4.46 4.453zm-.01-6.298a1.845 1.845 0 0 0 0 3.688 1.844 1.844 0 0 0 0-3.688zm4.298 12.424a1.304 1.304 0 1 1-1.845 1.846L5 14.434l-2.446 2.448a1.305 1.305 0 0 1-1.846-1.846l2.49-2.491A8.395 8.395 0 0 1 .61 11.473 1.306 1.306 0 0 1 2 9.263a5.657 5.657 0 0 0 5.999 0 1.306 1.306 0 0 1 1.39 2.21 8.347 8.347 0 0 1-2.587 1.072z"/></g></g></svg>