<svg xmlns="http://www.w3.org/2000/svg" width="23" height="14" viewBox="0 0 23 14"><g><g><path fill="#c80a09" d="M11.253 13.942h1.375s.416-.05.628-.293c.195-.224.188-.645.188-.645s-.026-1.967.83-2.258c.844-.286 1.928 1.903 3.076 2.745.87.637 1.529.496 1.529.496l3.071-.045s1.607-.106.845-1.454c-.062-.11-.444-.998-2.284-2.82-1.926-1.908-1.667-1.599.652-4.899 1.413-2.009 1.978-3.236 1.801-3.76C22.796.507 21.756.64 21.756.64l-3.458.023s-.257-.037-.447.084c-.185.118-.305.396-.305.396S17 2.698 16.27 4.021c-1.54 2.79-2.156 2.938-2.408 2.764-.586-.404-.44-1.622-.44-2.487 0-2.704.385-3.832-.747-4.123-.377-.098-.654-.162-1.615-.171C9.826-.011 8.78.006 8.19.314c-.394.207-.698.664-.512.69.228.034.746.15 1.02.548.355.516.343 1.67.343 1.67s.203 3.184-.477 3.579c-.466.27-1.105-.282-2.478-2.814-.703-1.297-1.235-2.73-1.235-2.73S4.75.99 4.567.846a1.38 1.38 0 0 0-.531-.229L.749.64S.256.655.075.884c-.16.203-.013.624-.013.624s2.572 6.424 5.486 9.66c2.672 2.969 5.705 2.774 5.705 2.774z"/></g></g></svg>