<svg xmlns="http://www.w3.org/2000/svg" width="19" height="11" viewBox="0 0 19 11"><g><g><g/><g><path fill="#c80a09" d="M18.097.745c.129-.43 0-.745-.613-.745h-2.026c-.515 0-.753.272-.882.573 0 0-1.03 2.512-2.49 4.143-.472.472-.687.623-.945.623-.128 0-.315-.151-.315-.58V.745c0-.516-.149-.745-.579-.745H7.063c-.322 0-.515.239-.515.466 0 .488.73.6.805 1.974v2.985c0 .654-.118.772-.376.772-.687 0-2.358-2.522-3.349-5.409C3.434.226 3.239 0 2.721 0H.695C.116 0 0 .272 0 .573c0 .536.687 3.198 3.199 6.719C4.873 9.696 7.232 11 9.379 11c1.288 0 1.447-.289 1.447-.788V8.394c0-.579.123-.694.53-.694.301 0 .816.15 2.018 1.31 1.374 1.374 1.6 1.99 2.373 1.99h2.027c.579 0 .868-.289.701-.86-.183-.57-.838-1.396-1.709-2.375-.472-.559-1.181-1.16-1.396-1.46-.3-.386-.214-.558 0-.902 0 0 2.47-3.477 2.727-4.658"/></g></g></g></svg>