<?xml version="1.0" encoding="UTF-8"?>
<svg width="267px" height="40px" viewBox="0 0 267 40" version="1.1" xmlns="http://www.w3.org/2000/svg" xmlns:xlink="http://www.w3.org/1999/xlink">
    <!-- Generator: Sketch 51.3 (57544) - http://www.bohemiancoding.com/sketch -->
    <title>icn / 32x32 / social / fb copy 4</title>
    <desc>Created with Sketch.</desc>
    <defs>
        <linearGradient x1="50%" y1="0%" x2="50%" y2="100%" id="linearGradient-1">
            <stop stop-color="#E80300" offset="0%"></stop>
            <stop stop-color="#C50B0A" offset="100%"></stop>
        </linearGradient>
    </defs>
    <g id="Symbols" stroke="none" stroke-width="1" fill="none" fill-rule="evenodd">
        <g id="footer-/-1920" transform="translate(-375.000000, -26.000000)">
            <g id="logo-/-alloshow-/-01" transform="translate(375.000000, 26.000000)">
                <rect id="Rectangle" fill="url(#linearGradient-1)" fill-rule="evenodd" x="0" y="0" width="267" height="40" rx="20"></rect>
                <path d="M32.6180191,30.2360619 L31.3925945,27.6466931 L23.1433952,27.6466931 L21.9179706,30.2360619 L16.6875,30.2360619 L16.6875,29.4710211 L26.1023471,9.37398822 L28.4037542,9.37398822 L37.8484897,29.4710211 L37.8484897,30.2360619 L32.6180191,30.2360619 Z M29.6590671,23.1447223 L27.2381064,17.7305876 L24.8769226,23.1447223 L29.6590671,23.1447223 Z M47.0690626,9.63881003 C47.0690626,20.2905317 47.0690626,16.7301496 47.0690626,25.498694 L54.6607171,25.498694 L54.6607171,30.2360619 L41.68915,30.2360619 L41.68915,9.63881003 L47.0690626,9.63881003 Z M64.8078306,9.63881003 C64.8078306,20.2905317 64.8078306,16.7301496 64.8078306,25.498694 L72.3994851,25.498694 L72.3994851,30.2360619 L59.427918,30.2360619 L59.427918,9.63881003 L64.8078306,9.63881003 Z M97.3712467,19.9668606 C97.3712467,34.2378137 75.911373,34.2378137 75.911373,19.9668606 C75.911373,5.72533218 97.3712467,5.72533218 97.3712467,19.9668606 Z M81.4108392,19.9668606 C81.4108392,27.4407206 91.9016689,27.4407206 91.9016689,19.9668606 C91.9016689,12.5518499 81.4108392,12.5518499 81.4108392,19.9668606 Z M106.233159,23.9391878 C106.233159,26.5579812 112.778719,26.5874059 112.778719,24.1745849 C112.778719,22.7327773 111.045192,22.4091062 108.953004,22.2914076 C104.409966,21.9677365 101.421126,20.4376549 101.361349,15.9651088 C101.182019,7.07886587 117.44131,7.07886587 117.321757,15.9651088 L112.240728,15.9651088 C112.240728,13.2286168 106.621708,13.464014 106.442378,15.9062595 C106.322824,17.4657657 107.877021,17.7894368 109.75999,17.9954094 C113.914479,18.436779 117.979301,19.0546966 117.979301,24.2040096 C117.979301,32.8548554 100.942911,33.0019786 101.062465,23.9391878 L106.233159,23.9391878 Z M140.440437,9.63881003 L140.440437,30.2360619 L134.970859,30.2360619 L134.970859,21.9677365 L128.514964,21.9677365 L128.514964,30.2360619 L123.045386,30.2360619 L123.045386,9.63881003 L128.514964,9.63881003 L128.514964,17.11267 L134.970859,17.11267 L134.970859,9.63881003 L140.440437,9.63881003 Z M167.085949,19.9668606 C167.085949,34.2378137 145.626076,34.2378137 145.626076,19.9668606 C145.626076,5.72533218 167.085949,5.72533218 167.085949,19.9668606 Z M151.125542,19.9668606 C151.125542,27.4407206 161.616371,27.4407206 161.616371,19.9668606 C161.616371,12.5518499 151.125542,12.5518499 151.125542,19.9668606 Z M182.642864,9.96248113 C183.479739,9.96248113 184.077507,9.96248113 184.914382,9.96248113 L188.471103,20.9084493 L188.560768,20.9084493 L189.487308,17.4069165 L192.147376,9.63881003 L197.467512,9.63881003 L197.467512,10.4332755 L190.20463,30.4420344 L187.126124,30.4420344 L183.778623,20.5259289 L183.688958,20.5259289 L180.341457,30.4420344 L177.382505,30.4420344 L170.029958,10.4332755 L170.029958,9.63881003 L175.439759,9.63881003 L178.129715,17.4069165 L179.056255,20.9084493 L179.145921,20.9084493 L182.642864,9.96248113 Z M203.250919,30.4126098 C201.577168,30.4126098 200.262078,29.3533225 200.262078,27.734967 C200.262078,26.0871869 201.577168,24.998475 203.250919,24.998475 C204.864892,24.998475 206.179982,26.0871869 206.179982,27.734967 C206.179982,29.3533225 204.864892,30.4126098 203.250919,30.4126098 Z M224.905067,22.9387498 L228.999779,29.4710211 L228.999779,30.2360619 L223.022098,30.2360619 L219.435489,24.1745849 L216.655868,24.1745849 L216.655868,30.2360619 L211.305844,30.2360619 L211.305844,9.63881003 L220.481584,9.63881003 C228.700895,9.66823468 230.195315,19.4077923 224.905067,22.9387498 Z M220.481584,19.4960663 C223.380759,19.4960663 223.530201,14.376178 220.481584,14.3467533 C219.226271,14.3173287 217.911181,14.3467533 216.655868,14.3467533 L216.655868,19.4960663 L220.481584,19.4960663 Z M241.448299,25.7929404 C243.002496,25.7929404 244.61647,24.9690504 244.61647,23.2918456 L244.61647,9.63881003 C246.320109,9.63881003 248.053636,9.63881003 249.727387,9.63881003 L249.727387,23.3801195 C249.727387,27.9115149 245.752229,30.5303084 241.448299,30.5303084 C237.174257,30.5303084 233.139323,27.9115149 233.139323,23.3801195 L233.139323,9.63881003 C234.813074,9.63881003 236.576489,9.63881003 238.25024,9.63881003 L238.25024,23.2918456 C238.25024,24.9690504 239.894102,25.7929404 241.448299,25.7929404 Z" id="ALLOSHOW.RU" fill="#FFFFFF" fill-rule="nonzero"></path>
            </g>
        </g>
    </g>
</svg>