<?xml version="1.0" encoding="UTF-8"?>
<svg width="245px" height="24px" viewBox="0 0 245 24" version="1.1" xmlns="http://www.w3.org/2000/svg" xmlns:xlink="http://www.w3.org/1999/xlink">
    <!-- Generator: Sketch 51.3 (57544) - http://www.bohemiancoding.com/sketch -->
    <title>Alloshow.ru</title>
    <desc>Created with Sketch.</desc>
    <defs>
        <linearGradient x1="50%" y1="0%" x2="50%" y2="100%" id="linearGradient-1">
            <stop stop-color="#E80300" offset="0%"></stop>
            <stop stop-color="#C50B0A" offset="100%"></stop>
        </linearGradient>
        <path d="M17.0946374,23.4985501 L22.6965818,23.4985501 L22.6965818,22.6659523 L12.5810707,0.794250785 L10.1162151,0.794250785 L0.0327151335,22.6659523 L0.0327151335,23.4985501 L5.63465958,23.4985501 L6.94711514,20.680527 L15.7821818,20.680527 L17.0946374,23.4985501 Z M13.9255374,15.7810097 L8.80375958,15.7810097 L11.3326374,9.88877969 L13.9255374,15.7810097 Z M32.0575452,1.08245769 L26.2955452,1.08245769 L26.2955452,23.4985501 L40.1883675,23.4985501 L40.1883675,18.3428488 L32.0575452,18.3428488 L32.0575452,1.08245769 Z M50.5416753,1.08245769 L44.7796753,1.08245769 L44.7796753,23.4985501 L58.6724976,23.4985501 L58.6724976,18.3428488 L50.5416753,18.3428488 L50.5416753,1.08245769 Z M84.9033166,12.3225269 C84.9033166,-3.17659986 61.9193388,-3.17659986 61.9193388,12.3225269 C61.9193388,27.8536766 84.9033166,27.8536766 84.9033166,12.3225269 Z M67.8093832,12.3225269 C67.8093832,4.25273361 79.0452832,4.25273361 79.0452832,12.3225269 C79.0452832,20.4563661 67.8093832,20.4563661 67.8093832,12.3225269 Z M93.8801467,16.6456304 L88.3422244,16.6456304 C88.21418,26.508711 106.460513,26.2525271 106.460513,16.8377683 C106.460513,11.4705349 102.467132,10.7150185 98.220649,10.238762 L97.6574578,10.1769866 C95.6407578,9.95282567 93.97618,9.60057279 94.1042244,7.90335436 C94.2962911,5.24544627 100.31438,4.98926236 100.31438,7.96740034 L105.756269,7.96740034 C105.884313,-1.70354236 88.4702689,-1.70354236 88.6623355,7.96740034 C88.7263578,12.8348947 91.9274689,14.5000901 96.7931578,14.852343 L97.3298509,14.8866584 C99.3228072,15.0306098 100.89058,15.3638453 100.89058,16.8057453 C100.89058,19.4316304 93.8801467,19.4956764 93.8801467,16.6456304 Z M130.002399,1.08245769 L124.144366,1.08245769 L124.144366,9.21629692 L117.229966,9.21629692 L117.229966,1.08245769 L111.371932,1.08245769 L111.371932,23.4985501 L117.229966,23.4985501 L117.229966,14.5000901 L124.144366,14.5000901 L124.144366,23.4985501 L130.002399,23.4985501 L130.002399,1.08245769 Z M158.02584,12.3225269 C158.02584,-3.17659986 135.041862,-3.17659986 135.041862,12.3225269 C135.041862,27.8536766 158.02584,27.8536766 158.02584,12.3225269 Z M140.931907,12.3225269 C140.931907,4.25273361 152.167807,4.25273361 152.167807,12.3225269 C152.167807,20.4563661 140.931907,20.4563661 140.931907,12.3225269 Z M174.173159,1.43471057 L170.427859,13.3472625 L170.331826,13.3472625 L169.339481,9.53652681 L166.458481,1.08245769 L160.66447,1.08245769 L160.66447,1.94707839 L168.539204,23.722711 L171.708304,23.722711 L175.293548,12.9309637 L175.389581,12.9309637 L178.974826,23.722711 L182.27197,23.722711 L190.05067,1.94707839 L190.05067,1.08245769 L184.352693,1.08245769 L181.503704,9.53652681 L180.511359,13.3472625 L180.415326,13.3472625 L176.606004,1.43471057 L174.173159,1.43471057 Z M195.730356,23.690688 C197.458956,23.690688 198.867445,22.5378604 198.867445,20.776596 C198.867445,18.9833086 197.458956,17.798458 195.730356,17.798458 C193.937734,17.798458 192.529245,18.9833086 192.529245,20.776596 C192.529245,22.5378604 193.937734,23.690688 195.730356,23.690688 Z M218.407942,15.5568488 C224.073908,11.7140901 222.473353,1.11448068 213.670297,1.08245769 L203.842886,1.08245769 L203.842886,23.4985501 L209.572875,23.4985501 L209.572875,16.9018143 L212.549908,16.9018143 L216.391242,23.4985501 L222.793464,23.4985501 L222.793464,22.6659523 L218.407942,15.5568488 Z M213.670297,11.7461131 L209.572875,11.7461131 L209.572875,6.20613594 C210.917342,6.20613594 212.325831,6.17411295 213.670297,6.20613594 C216.935431,6.23815893 216.775375,11.7461131 213.670297,11.7461131 Z M235.611627,18.6630787 C237.276205,18.6630787 239.004805,17.766435 239.004805,15.9411246 L239.004805,1.08245769 L244.542727,1.08245769 L244.542727,16.0371936 C244.542727,20.9687339 240.221227,23.8187799 235.611627,23.8187799 C231.034038,23.8187799 226.712538,20.9687339 226.712538,16.0371936 L226.712538,1.08245769 L232.186438,1.08245769 L232.186438,15.9411246 C232.186438,17.766435 233.94705,18.6630787 235.611627,18.6630787 Z" id="path-2"></path>
    </defs>
    <g id="Page-1" stroke="none" stroke-width="1" fill="none" fill-rule="evenodd">
        <g id="Header_Menu-1" transform="translate(-75.000000, -52.000000)" fill-rule="nonzero">
            <g id="Group-35" transform="translate(0.000000, -554.000000)">
                <g id="Group-34">
                    <g id="Alloshow.ru" transform="translate(75.000000, 606.000000)">
                        <g>
                            <use fill="#333333" xlink:href="#path-2"></use>
                            <use fill="url(#linearGradient-1)" xlink:href="#path-2"></use>
                        </g>
                    </g>
                </g>
            </g>
        </g>
    </g>
</svg>